<svg width="334" height="40" viewBox="0 0 334 40" fill="none" xmlns="http://www.w3.org/2000/svg">
<path d="M4.23489 4.56284C2.07472 6.77521 0.994629 9.5038 0.994629 12.6011V38.8545H35.7735V32.9549H6.68309V21.8931H35.7015V15.9934H6.68309V12.5274C6.68309 10.9787 7.18714 9.72503 8.26722 8.61885C9.34731 7.51267 10.6434 6.99645 12.0835 6.99645H35.7015V1.0968H12.1555C9.05929 1.17055 6.39507 2.27673 4.23489 4.56284Z" fill="#315679"/>
<path d="M68.8245 16.0671H45.4946V1.17053H39.8062V38.8545H45.4946V21.893H68.8245V38.8545H74.513V1.17053H68.8245V16.0671Z" fill="#315679"/>
<path d="M85.3137 8.10262C85.9618 7.43891 86.7539 7.07018 87.6899 7.07018H113.324V1.17053H87.6899C85.2417 1.17053 83.0816 2.05548 81.2814 3.89912C79.4813 5.74276 78.6172 7.95513 78.6172 10.4625V12.6011C78.6172 15.1822 79.4813 17.3946 81.2814 19.1645C83.0816 20.9344 85.2417 21.893 87.6899 21.893H104.251C105.187 21.893 105.979 22.188 106.627 22.9255C107.276 23.5892 107.636 24.4004 107.636 25.3591V29.6363C107.636 30.595 107.348 31.4062 106.627 32.0699C105.979 32.7337 105.187 33.1024 104.251 33.1024H78.6172V39.002H104.251C106.699 39.002 108.86 38.1171 110.66 36.2734C112.46 34.4298 113.324 32.2174 113.324 29.7101V25.4328C113.324 22.8517 112.46 20.6394 110.66 18.8695C108.86 17.0996 106.699 16.1409 104.251 16.1409H87.6899C86.7539 16.1409 85.9618 15.8459 85.3137 15.1085C84.6657 14.4447 84.3057 13.6335 84.3057 12.6748V10.5362C84.3777 9.50379 84.6657 8.76633 85.3137 8.10262Z" fill="#315679"/>
<path d="M122.973 0.801758H121.533V37.7483H122.973V0.801758Z" fill="#315679"/>
<path d="M139.318 11.2001C139.318 11.4951 139.246 11.6426 139.174 11.7163C139.102 11.7901 138.886 11.7901 138.67 11.7901H138.094C137.662 11.7901 137.302 11.7163 136.942 11.5688C136.654 11.4214 136.366 11.2001 136.222 10.9051H134.782C133.558 10.9051 132.622 10.6839 132.046 10.1677C131.47 9.65146 131.182 8.98775 131.182 8.02905C131.182 6.92287 131.542 6.11166 132.19 5.59544C132.838 5.07922 133.774 4.85798 134.998 4.85798C135.142 4.85798 135.286 4.85798 135.502 4.85798C135.718 4.85798 135.934 4.85798 136.15 4.93173C136.366 4.93173 136.582 4.93173 136.798 5.00548C137.014 5.00548 137.158 5.07922 137.302 5.07922V9.35647C137.302 9.7252 137.374 10.0202 137.518 10.2414C137.662 10.4627 137.95 10.6102 138.382 10.6102H138.742C138.958 10.6102 139.102 10.6102 139.174 10.6839C139.246 10.8314 139.318 10.9789 139.318 11.2001ZM132.55 7.95531C132.55 8.61902 132.766 9.13524 133.198 9.43022C133.63 9.7252 134.278 9.8727 135.07 9.8727H136.006V6.03791C135.79 6.03791 135.502 5.96417 135.358 5.96417C135.142 5.96417 134.998 5.96417 134.998 5.96417C134.278 5.96417 133.702 6.11166 133.27 6.40664C132.766 6.77537 132.55 7.2916 132.55 7.95531ZM132.694 2.9406C132.694 2.71936 132.766 2.49812 132.91 2.35063C133.054 2.20314 133.27 2.12939 133.486 2.12939C133.702 2.12939 133.918 2.20314 134.062 2.35063C134.206 2.49812 134.278 2.71936 134.278 2.9406C134.278 3.16183 134.206 3.38307 134.062 3.53056C133.918 3.67806 133.702 3.7518 133.486 3.7518C133.27 3.7518 133.054 3.67806 132.91 3.53056C132.766 3.38307 132.694 3.16183 132.694 2.9406ZM134.71 2.9406C134.71 2.71936 134.782 2.49812 134.926 2.35063C135.07 2.20314 135.286 2.12939 135.502 2.12939C135.718 2.12939 135.934 2.20314 136.078 2.35063C136.222 2.49812 136.294 2.71936 136.294 2.9406C136.294 3.16183 136.222 3.38307 136.078 3.53056C135.934 3.67806 135.718 3.7518 135.502 3.7518C135.286 3.7518 135.07 3.67806 134.926 3.53056C134.782 3.38307 134.71 3.16183 134.71 2.9406Z" fill="#315679"/>
<path d="M138.742 11.7901C138.526 11.7901 138.382 11.7163 138.31 11.6426C138.238 11.5688 138.166 11.4213 138.166 11.2001C138.166 10.9051 138.238 10.7576 138.31 10.7576C138.382 10.6839 138.598 10.6839 138.814 10.6839H139.894C140.326 10.6839 140.614 10.6101 140.686 10.3889C140.83 10.1677 140.902 9.87268 140.902 9.43021V5.07922H142.198V10.1677C142.198 10.2414 142.198 10.3152 142.27 10.3889C142.342 10.4626 142.414 10.5364 142.558 10.5364C142.63 10.6101 142.774 10.6101 142.918 10.6101C143.062 10.6101 143.134 10.6101 143.278 10.6101H143.71C143.926 10.6101 144.07 10.6101 144.143 10.6839C144.215 10.7576 144.287 10.9051 144.287 11.1264C144.287 11.4213 144.215 11.5688 144.143 11.6426C144.07 11.7163 143.854 11.7163 143.638 11.7163H143.35C143.062 11.7163 142.774 11.6426 142.558 11.5688C142.342 11.4951 142.126 11.2738 141.982 11.0526C141.838 11.2001 141.694 11.3476 141.406 11.4951C141.118 11.6426 140.758 11.7163 140.182 11.7163H138.742V11.7901ZM139.534 13.7812C139.534 13.56 139.606 13.3387 139.75 13.1912C139.894 13.0437 140.11 12.97 140.326 12.97C140.542 12.97 140.758 13.0437 140.902 13.1912C141.046 13.3387 141.118 13.56 141.118 13.7812C141.118 14.0024 141.046 14.2237 140.902 14.3712C140.758 14.5186 140.542 14.5924 140.326 14.5924C140.11 14.5924 139.894 14.5186 139.75 14.3712C139.606 14.2237 139.534 14.0024 139.534 13.7812ZM141.55 13.7812C141.55 13.56 141.622 13.3387 141.766 13.1912C141.91 13.0437 142.126 12.97 142.342 12.97C142.558 12.97 142.774 13.0437 142.918 13.1912C143.062 13.3387 143.134 13.56 143.134 13.7812C143.134 14.0024 143.062 14.2237 142.918 14.3712C142.774 14.5186 142.558 14.5924 142.342 14.5924C142.126 14.5924 141.91 14.5186 141.766 14.3712C141.622 14.2237 141.55 14.0024 141.55 13.7812Z" fill="#315679"/>
<path d="M148.679 10.6838C148.535 10.3888 148.391 10.0938 148.319 9.79885C148.247 9.43013 148.175 9.13515 148.175 8.76642C148.103 8.39769 148.103 8.10271 148.031 7.73398C147.959 7.439 147.887 7.14402 147.743 6.84904C147.599 6.55406 147.383 6.40656 147.167 6.25907C146.879 6.11158 146.591 6.03784 146.159 6.03784C145.727 6.03784 145.439 6.03784 145.151 6.11159C144.863 6.18533 144.647 6.25907 144.503 6.25907V5.22664C144.719 5.15289 144.935 5.07915 145.295 5.0054C145.655 4.93166 146.015 4.85791 146.447 4.85791C147.095 4.85791 147.671 4.93166 148.031 5.15289C148.463 5.37413 148.751 5.66911 148.967 5.96409C149.183 6.33282 149.327 6.70154 149.399 7.14402C149.471 7.58649 149.543 8.02896 149.615 8.39769C149.687 8.84016 149.759 9.20889 149.831 9.57762C149.903 9.94634 150.047 10.2413 150.263 10.5363H151.199C151.415 10.5363 151.559 10.5363 151.631 10.6101C151.703 10.6838 151.775 10.8313 151.775 11.0525C151.775 11.3475 151.703 11.495 151.631 11.5687C151.559 11.6425 151.343 11.6425 151.127 11.6425H143.711C143.279 11.6425 143.062 11.4213 143.062 10.9788C143.062 10.7575 143.135 10.6838 143.207 10.6101C143.279 10.5363 143.495 10.5363 143.711 10.5363H148.679V10.6838Z" fill="#315679"/>
<path d="M154.296 5.66908C154.512 5.59533 154.8 5.52159 155.16 5.52159C155.52 5.44784 155.88 5.3741 156.24 5.30035C156.6 5.2266 156.96 5.22661 157.32 5.15286C157.68 5.07911 158.04 5.07912 158.328 5.07912C159.192 5.07912 159.912 5.15286 160.416 5.3741C160.992 5.59534 161.424 5.81657 161.712 6.1853C162 6.55403 162.216 6.92276 162.36 7.43898C162.504 7.9552 162.504 8.47142 162.504 9.06139V10.1676C162.504 10.2413 162.576 10.3151 162.648 10.3888C162.72 10.4626 162.792 10.5363 162.936 10.5363C163.008 10.61 163.152 10.61 163.296 10.61C163.44 10.61 163.512 10.61 163.656 10.61H163.944C164.16 10.61 164.304 10.61 164.376 10.6838C164.448 10.7575 164.52 10.905 164.52 11.1263C164.52 11.4212 164.448 11.5687 164.376 11.6425C164.304 11.7162 164.088 11.7162 163.872 11.7162H163.728C163.44 11.7162 163.152 11.6425 162.936 11.5687C162.72 11.495 162.504 11.2738 162.36 11.0525C162.216 11.2 162.072 11.3475 161.784 11.495C161.496 11.6425 161.136 11.7162 160.56 11.7162H150.983C150.767 11.7162 150.623 11.6425 150.551 11.5687C150.479 11.495 150.407 11.3475 150.407 11.1263C150.407 10.8313 150.479 10.6838 150.551 10.6838C150.623 10.61 150.839 10.61 151.055 10.61H153.071V5.00537H154.368V5.66908H154.296ZM161.28 9.28262C161.28 8.7664 161.208 8.25018 161.136 7.88145C161.064 7.51272 160.848 7.144 160.632 6.92276C160.416 6.62778 160.056 6.48028 159.624 6.33279C159.192 6.1853 158.688 6.11156 158.04 6.11156C157.752 6.11156 157.392 6.11156 157.104 6.1853C156.744 6.1853 156.456 6.25905 156.096 6.33279C155.736 6.40654 155.448 6.40654 155.16 6.48029C154.872 6.55403 154.584 6.62778 154.368 6.62778V10.6838H160.344C160.776 10.6838 161.064 10.61 161.136 10.3888C161.28 10.1676 161.352 9.87259 161.352 9.43012V9.28262H161.28Z" fill="#315679"/>
<path d="M163.944 11.7901C163.728 11.7901 163.584 11.7163 163.512 11.6426C163.44 11.5688 163.368 11.4213 163.368 11.2001C163.368 10.9051 163.44 10.7576 163.512 10.7576C163.584 10.6839 163.8 10.6839 164.016 10.6839H165.96V0.359497H167.257V11.7901H163.944Z" fill="#315679"/>
<path d="M170.713 0.359497V11.7901H169.417V0.359497H170.713Z" fill="#315679"/>
<path d="M187.058 10.6838V5.07914H188.354V11.79H178.058C177.41 11.79 176.834 11.6425 176.473 11.2738C176.041 10.905 175.897 10.3888 175.897 9.57762V6.48031H177.194V9.43013C177.194 9.79886 177.266 10.0938 177.41 10.3151C177.554 10.5363 177.842 10.6838 178.274 10.6838H187.058ZM180.362 3.89922C180.362 3.67798 180.434 3.45674 180.578 3.30925C180.722 3.16176 180.938 3.08801 181.154 3.08801C181.37 3.08801 181.586 3.16176 181.73 3.30925C181.874 3.45674 181.946 3.67798 181.946 3.89922C181.946 4.12045 181.874 4.34169 181.73 4.48918C181.586 4.63667 181.37 4.71042 181.154 4.71042C180.938 4.71042 180.722 4.63667 180.578 4.48918C180.506 4.34169 180.362 4.12045 180.362 3.89922ZM182.378 3.89922C182.378 3.67798 182.45 3.45674 182.594 3.30925C182.738 3.16176 182.954 3.08801 183.17 3.08801C183.386 3.08801 183.602 3.16176 183.746 3.30925C183.89 3.45674 183.962 3.67798 183.962 3.89922C183.962 4.12045 183.89 4.34169 183.746 4.48918C183.602 4.63667 183.386 4.71042 183.17 4.71042C182.954 4.71042 182.738 4.63667 182.594 4.48918C182.45 4.34169 182.378 4.12045 182.378 3.89922Z" fill="#315679"/>
<path d="M193.827 11.2001C193.827 11.4951 193.755 11.6426 193.683 11.7163C193.611 11.7901 193.395 11.7901 193.179 11.7901H192.603C191.954 11.7901 191.378 11.6426 191.018 11.2738C190.586 10.9051 190.442 10.3889 190.442 9.57769V0.359497H191.738V9.4302C191.738 9.87268 191.81 10.1677 191.954 10.3889C192.098 10.6101 192.386 10.6839 192.819 10.6839H193.251C193.467 10.6839 193.611 10.6839 193.755 10.7576C193.755 10.8314 193.827 10.9789 193.827 11.2001Z" fill="#315679"/>
<path d="M195.411 10.6838C195.267 10.3888 195.123 10.0201 195.051 9.57762C194.907 9.13514 194.835 8.61893 194.835 8.10271C194.835 7.66023 194.907 7.29151 195.051 6.84903C195.195 6.4803 195.411 6.11157 195.699 5.81659C195.987 5.52161 196.347 5.30037 196.707 5.15288C197.139 5.00539 197.571 4.93164 198.147 4.93164C198.723 4.93164 199.227 5.00539 199.659 5.22662C200.091 5.44786 200.379 5.6691 200.667 6.03783C200.883 6.33281 201.1 6.70154 201.172 7.14401C201.316 7.51274 201.316 7.95522 201.316 8.32394C201.316 8.76642 201.244 9.20889 201.1 9.65136C200.955 10.0938 200.739 10.4626 200.523 10.7575C200.235 11.0525 199.947 11.3475 199.587 11.5687C199.227 11.79 198.723 11.8637 198.219 11.8637H193.251C193.035 11.8637 192.891 11.79 192.819 11.7162C192.747 11.6425 192.675 11.495 192.675 11.2738C192.675 10.9788 192.747 10.8313 192.819 10.8313C192.891 10.7575 193.107 10.7575 193.323 10.7575H195.411V10.6838ZM198.003 10.6838C198.363 10.6838 198.651 10.6101 198.867 10.4626C199.083 10.3151 199.299 10.1676 199.443 9.8726C199.587 9.65137 199.731 9.35638 199.803 9.0614C199.875 8.76642 199.875 8.47143 199.875 8.17645C199.875 7.51274 199.731 6.92278 199.371 6.55405C199.083 6.11157 198.579 5.89034 198.003 5.89034C197.787 5.89034 197.499 5.96408 197.283 6.03783C197.067 6.11157 196.851 6.25906 196.707 6.40655C196.563 6.55404 196.419 6.77528 196.275 7.07027C196.131 7.36525 196.131 7.66023 196.131 8.02896C196.131 8.32394 196.131 8.54518 196.203 8.84016C196.275 9.0614 196.275 9.35638 196.347 9.57762C196.419 9.79886 196.491 10.0201 196.563 10.1676C196.635 10.3151 196.707 10.5363 196.779 10.6101H198.003V10.6838Z" fill="#315679"/>
<path d="M207.724 8.98773C207.724 8.54525 207.724 8.17652 207.652 7.88154C207.58 7.51281 207.508 7.21783 207.292 6.9966C207.076 6.77536 206.788 6.55412 206.356 6.40663C205.924 6.25914 205.42 6.18539 204.7 6.18539H203.476V5.15295H204.772C205.636 5.15295 206.356 5.2267 206.932 5.44794C207.508 5.59543 207.94 5.89041 208.228 6.18539C208.516 6.48038 208.732 6.84911 208.876 7.29158C209.02 7.73405 209.02 8.25027 209.02 8.76649V10.2414C209.02 10.3152 209.092 10.3889 209.164 10.4626C209.236 10.5364 209.308 10.6101 209.452 10.6101C209.596 10.6839 209.668 10.6839 209.812 10.6839C209.956 10.6839 210.028 10.6839 210.172 10.6839H210.46C210.676 10.6839 210.82 10.6839 210.892 10.7576C210.964 10.8314 211.036 10.9789 211.036 11.2001C211.036 11.4951 210.964 11.6426 210.892 11.7163C210.82 11.7901 210.604 11.7901 210.388 11.7901H210.244C209.956 11.7901 209.668 11.7163 209.452 11.6426C209.236 11.5688 209.02 11.3476 208.876 11.1264C208.732 11.2738 208.588 11.4213 208.3 11.5688C208.012 11.7163 207.652 11.7901 207.076 11.7901H202.54V10.6839H206.788C207.22 10.6839 207.508 10.6101 207.58 10.3889C207.724 10.1677 207.796 9.87268 207.796 9.4302V8.98773H207.724Z" fill="#315679"/>
<path d="M215.5 10.6839C215.356 10.3889 215.212 10.0939 215.14 9.79893C215.068 9.4302 214.996 9.13522 214.996 8.76649C214.924 8.39776 214.924 8.10278 214.852 7.73405C214.78 7.43907 214.708 7.14409 214.564 6.84911C214.42 6.55412 214.204 6.40663 213.988 6.25914C213.772 6.11165 213.412 6.0379 212.98 6.0379C212.548 6.0379 212.26 6.03791 211.972 6.11165C211.684 6.1854 211.468 6.25914 211.324 6.25914V5.2267C211.54 5.15296 211.756 5.07922 212.116 5.00547C212.476 4.93172 212.836 4.85798 213.268 4.85798C213.916 4.85798 214.492 4.93172 214.852 5.15296C215.284 5.37419 215.572 5.66918 215.788 5.96416C216.004 6.33289 216.148 6.70161 216.22 7.14408C216.292 7.58656 216.364 8.02903 216.436 8.39776C216.508 8.84023 216.58 9.20896 216.652 9.57769C216.724 9.94642 216.868 10.2414 217.084 10.5364H218.02C218.236 10.5364 218.38 10.5364 218.452 10.6101C218.524 10.6839 218.596 10.8314 218.596 11.0526C218.596 11.3476 218.524 11.4951 218.452 11.5688C218.38 11.6426 218.164 11.6426 217.948 11.6426H210.532C210.1 11.6426 209.884 11.4213 209.884 10.9789C209.884 10.7576 209.956 10.6839 210.028 10.6101C210.1 10.5364 210.316 10.5364 210.532 10.5364H215.5V10.6839ZM212.332 2.94059C212.332 2.71936 212.404 2.49812 212.548 2.35063C212.692 2.20314 212.908 2.12939 213.124 2.12939C213.34 2.12939 213.556 2.20314 213.7 2.35063C213.844 2.49812 213.916 2.71936 213.916 2.94059C213.916 3.16183 213.844 3.38307 213.7 3.53056C213.556 3.67805 213.34 3.75179 213.124 3.75179C212.908 3.75179 212.692 3.67805 212.548 3.53056C212.404 3.38307 212.332 3.16183 212.332 2.94059Z" fill="#315679"/>
<path d="M217.805 11.7901C217.589 11.7901 217.445 11.7163 217.373 11.6426C217.301 11.5688 217.229 11.4213 217.229 11.2001C217.229 10.9051 217.301 10.7576 217.373 10.7576C217.445 10.6839 217.661 10.6839 217.877 10.6839H218.957C219.389 10.6839 219.677 10.6101 219.749 10.3889C219.893 10.1677 219.965 9.87268 219.965 9.4302V0.359497H221.261V10.1677C221.261 10.2414 221.333 10.3151 221.405 10.3889C221.477 10.4626 221.549 10.5364 221.693 10.5364C221.837 10.6101 221.909 10.6101 222.053 10.6101C222.197 10.6101 222.269 10.6101 222.413 10.6101H222.845C223.061 10.6101 223.205 10.6101 223.277 10.6839C223.349 10.7576 223.421 10.9051 223.421 11.1263C223.421 11.4213 223.349 11.5688 223.277 11.6426C223.205 11.7163 222.989 11.7163 222.773 11.7163H222.341C222.053 11.7163 221.765 11.6426 221.549 11.5688C221.333 11.4951 221.117 11.2738 220.973 11.0526C220.829 11.2001 220.685 11.3476 220.397 11.4951C220.109 11.6426 219.749 11.7163 219.173 11.7163H217.805V11.7901Z" fill="#315679"/>
<path d="M222.629 11.7901C222.413 11.7901 222.269 11.7163 222.197 11.6426C222.125 11.5688 222.053 11.4213 222.053 11.2001C222.053 10.9051 222.125 10.7576 222.197 10.7576C222.269 10.6839 222.485 10.6839 222.701 10.6839H224.645V0.359497H225.941V11.7901H222.629Z" fill="#315679"/>
<path d="M242.143 10.6838V5.07914H243.439V11.79H233.142C232.494 11.79 231.918 11.6425 231.558 11.2738C231.126 10.905 230.982 10.3888 230.982 9.57762V6.48031H232.278V9.43013C232.278 9.79886 232.35 10.0938 232.494 10.3151C232.638 10.5363 232.926 10.6838 233.358 10.6838H242.143ZM235.446 3.89922C235.446 3.67798 235.518 3.45674 235.662 3.30925C235.806 3.16176 236.022 3.08801 236.238 3.08801C236.454 3.08801 236.67 3.16176 236.814 3.30925C236.958 3.45674 237.03 3.67798 237.03 3.89922C237.03 4.12045 236.958 4.34169 236.814 4.48918C236.67 4.63667 236.454 4.71042 236.238 4.71042C236.022 4.71042 235.806 4.63667 235.662 4.48918C235.518 4.34169 235.446 4.12045 235.446 3.89922ZM237.462 3.89922C237.462 3.67798 237.534 3.45674 237.678 3.30925C237.822 3.16176 238.039 3.08801 238.255 3.08801C238.471 3.08801 238.687 3.16176 238.831 3.30925C238.975 3.45674 239.047 3.67798 239.047 3.89922C239.047 4.12045 238.975 4.34169 238.831 4.48918C238.687 4.63667 238.471 4.71042 238.255 4.71042C238.039 4.71042 237.822 4.63667 237.678 4.48918C237.534 4.34169 237.462 4.12045 237.462 3.89922Z" fill="#315679"/>
<path d="M246.823 0.359497V11.7901H245.527V0.359497H246.823Z" fill="#315679"/>
<path d="M250.064 5.07922H251.36V11.4951C251.36 11.9376 251.288 12.38 251.216 12.7488C251.144 13.1175 251 13.4125 250.784 13.7074C250.568 14.0024 250.28 14.2237 249.92 14.3712C249.56 14.5186 249.055 14.5924 248.479 14.5924H248.191V13.4862H248.335C248.983 13.4862 249.416 13.3387 249.632 13.0437C249.848 12.7488 249.992 12.2325 249.992 11.5688V5.07922H250.064Z" fill="#315679"/>
<path d="M256.832 11.2001C256.832 11.4951 256.76 11.6426 256.688 11.7163C256.616 11.7901 256.4 11.7901 256.183 11.7901H255.607C254.959 11.7901 254.383 11.6426 254.023 11.2738C253.591 10.9051 253.447 10.3889 253.447 9.57769V0.359497H254.743V9.4302C254.743 9.87268 254.815 10.1677 254.959 10.3889C255.103 10.6101 255.391 10.6839 255.823 10.6839H256.255C256.472 10.6839 256.616 10.6839 256.76 10.7576C256.76 10.8314 256.832 10.9789 256.832 11.2001Z" fill="#315679"/>
<path d="M258.344 10.6838C258.2 10.3888 258.056 10.0201 257.984 9.57762C257.84 9.13514 257.768 8.61893 257.768 8.10271C257.768 7.66023 257.84 7.29151 257.984 6.84903C258.128 6.4803 258.344 6.11157 258.632 5.81659C258.92 5.52161 259.28 5.30037 259.64 5.15288C260.072 5.00539 260.504 4.93164 261.08 4.93164C261.656 4.93164 262.16 5.00539 262.592 5.22662C263.025 5.44786 263.313 5.6691 263.601 6.03783C263.817 6.33281 264.033 6.70154 264.105 7.14401C264.249 7.51274 264.249 7.95522 264.249 8.32394C264.249 8.76642 264.177 9.20889 264.033 9.65136C263.889 10.0938 263.673 10.4626 263.457 10.7575C263.169 11.0525 262.88 11.3475 262.52 11.5687C262.16 11.79 261.656 11.8637 261.152 11.8637H256.184C255.968 11.8637 255.824 11.79 255.752 11.7162C255.68 11.6425 255.608 11.495 255.608 11.2738C255.608 10.9788 255.68 10.8313 255.752 10.8313C255.824 10.7575 256.04 10.7575 256.256 10.7575H258.344V10.6838ZM261.008 10.6838C261.368 10.6838 261.656 10.6101 261.872 10.4626C262.088 10.3151 262.304 10.1676 262.448 9.8726C262.592 9.65137 262.736 9.35638 262.809 9.0614C262.881 8.76642 262.88 8.47143 262.88 8.17645C262.88 7.51274 262.736 6.92278 262.376 6.55405C262.088 6.11157 261.584 5.89034 261.008 5.89034C260.792 5.89034 260.504 5.96408 260.288 6.03783C260.072 6.11157 259.856 6.25906 259.712 6.40655C259.568 6.55404 259.424 6.77528 259.28 7.07027C259.136 7.36525 259.136 7.66023 259.136 8.02896C259.136 8.32394 259.136 8.54518 259.208 8.84016C259.28 9.0614 259.28 9.35638 259.352 9.57762C259.424 9.79886 259.496 10.0201 259.568 10.1676C259.64 10.3151 259.712 10.5363 259.784 10.6101H261.008V10.6838Z" fill="#315679"/>
<path d="M265.617 11.7901V10.6839H268.785V3.08808H270.081V10.6839H272.889V0.359497H274.185V11.7901H265.617ZM270.945 16.0673H267.777V15.3299H268.497C268.425 15.0349 268.353 14.8874 268.353 14.7399C268.353 14.5924 268.281 14.4449 268.281 14.3712C268.281 13.9287 268.425 13.6337 268.713 13.3387C269.001 13.0437 269.433 12.8962 270.009 12.8962C270.081 12.8962 270.225 12.8962 270.369 12.8962C270.513 12.8962 270.657 12.8962 270.729 12.8962V13.6337C270.657 13.6337 270.585 13.6337 270.513 13.6337C270.441 13.6337 270.369 13.6337 270.297 13.6337C269.937 13.6337 269.649 13.7075 269.433 13.8549C269.217 14.0024 269.145 14.2237 269.145 14.5186C269.145 14.5924 269.145 14.7399 269.217 14.8874C269.217 15.0349 269.289 15.1824 269.361 15.4036H271.017V16.0673H270.945Z" fill="#315679"/>
<path d="M277.786 0.359497V11.7901H276.49V0.359497H277.786Z" fill="#315679"/>
<path d="M291.035 11.2001C291.035 11.4951 290.963 11.6426 290.891 11.7163C290.819 11.7901 290.603 11.7901 290.387 11.7901H289.739C289.307 11.7901 288.947 11.7163 288.587 11.5688C288.299 11.4214 288.011 11.2001 287.867 10.9051H286.426C285.202 10.9051 284.266 10.6839 283.69 10.1677C283.114 9.65146 282.826 8.98775 282.826 8.02905C282.826 6.92287 283.186 6.11166 283.834 5.59544C284.482 5.07922 285.418 4.85798 286.642 4.85798C286.786 4.85798 286.93 4.85798 287.146 4.85798C287.363 4.85798 287.579 4.85798 287.795 4.93173C288.011 4.93173 288.227 4.93173 288.443 5.00548C288.659 5.00548 288.803 5.07922 288.947 5.07922V9.35647C288.947 9.7252 289.019 10.0202 289.163 10.2414C289.307 10.4627 289.595 10.6102 290.027 10.6102H290.387C290.603 10.6102 290.747 10.6102 290.819 10.6839C290.963 10.8314 291.035 10.9789 291.035 11.2001ZM284.266 7.95531C284.266 8.61902 284.482 9.13524 284.914 9.43022C285.346 9.7252 285.994 9.8727 286.786 9.8727H287.723V6.03791C287.507 6.03791 287.218 5.96417 287.074 5.96417C286.858 5.96417 286.714 5.96417 286.714 5.96417C285.994 5.96417 285.418 6.11166 284.986 6.40664C284.482 6.77537 284.266 7.2916 284.266 7.95531ZM284.41 2.9406C284.41 2.71936 284.482 2.49812 284.626 2.35063C284.77 2.20314 284.986 2.12939 285.202 2.12939C285.418 2.12939 285.634 2.20314 285.778 2.35063C285.922 2.49812 285.994 2.71936 285.994 2.9406C285.994 3.16183 285.922 3.38307 285.778 3.53056C285.634 3.67806 285.418 3.7518 285.202 3.7518C284.986 3.7518 284.77 3.67806 284.626 3.53056C284.482 3.38307 284.41 3.16183 284.41 2.9406ZM286.426 2.9406C286.426 2.71936 286.498 2.49812 286.642 2.35063C286.786 2.20314 287.002 2.12939 287.219 2.12939C287.435 2.12939 287.651 2.20314 287.795 2.35063C287.939 2.49812 288.011 2.71936 288.011 2.9406C288.011 3.16183 287.939 3.38307 287.795 3.53056C287.651 3.67806 287.435 3.7518 287.219 3.7518C287.002 3.7518 286.786 3.67806 286.642 3.53056C286.498 3.38307 286.426 3.16183 286.426 2.9406Z" fill="#315679"/>
<path d="M290.459 11.7901C290.243 11.7901 290.099 11.7163 290.027 11.6426C289.955 11.5688 289.883 11.4213 289.883 11.2001C289.883 10.9051 289.955 10.7576 290.027 10.7576C290.099 10.6839 290.315 10.6839 290.531 10.6839H293.051V6.48039H294.347V10.6839H297.083V6.48039H298.379V10.6839H300.036C300.468 10.6839 300.756 10.6101 300.828 10.3889C300.972 10.1677 301.044 9.87269 301.044 9.43022V5.07922H302.34V10.1677C302.34 10.2414 302.412 10.3152 302.484 10.3889C302.556 10.4627 302.628 10.5364 302.772 10.5364C302.916 10.6101 302.988 10.6101 303.132 10.6101C303.276 10.6101 303.348 10.6101 303.492 10.6101H303.924C304.14 10.6101 304.284 10.6101 304.356 10.6839C304.428 10.7576 304.5 10.9051 304.5 11.1264C304.5 11.4213 304.428 11.5688 304.356 11.6426C304.284 11.7163 304.068 11.7163 303.852 11.7163H303.564C303.276 11.7163 302.988 11.6426 302.772 11.5688C302.556 11.4951 302.34 11.2739 302.196 11.0526C302.052 11.2001 301.908 11.3476 301.62 11.4951C301.332 11.6426 300.972 11.7163 300.396 11.7163H290.459V11.7901Z" fill="#315679"/>
<path d="M303.78 11.7901C303.564 11.7901 303.42 11.7163 303.348 11.6426C303.276 11.5688 303.204 11.4213 303.204 11.2001C303.204 10.9051 303.276 10.7576 303.348 10.7576C303.42 10.6839 303.636 10.6839 303.852 10.6839H306.588V6.48039H307.884V10.6839H310.62V6.48039H311.916V10.6839H314.581V5.07922H315.877V11.7901H303.78Z" fill="#315679"/>
<path d="M323.509 11.79C323.509 12.2325 323.437 12.6012 323.293 12.9699C323.149 13.3387 323.005 13.6337 322.789 13.8549C322.573 14.0761 322.213 14.2974 321.853 14.3711C321.493 14.5186 320.989 14.5924 320.413 14.5924H318.541V13.5599H320.413C321.061 13.5599 321.493 13.4124 321.781 13.1912C322.069 12.8962 322.213 12.4537 322.213 11.8638H321.277C320.485 11.8638 319.837 11.7163 319.333 11.495C318.829 11.2738 318.469 10.9788 318.181 10.6838C317.893 10.3151 317.749 9.94637 317.605 9.57765C317.533 9.20892 317.461 8.84019 317.461 8.47146C317.461 7.95524 317.533 7.51277 317.677 7.07029C317.821 6.62782 318.109 6.25909 318.397 5.96411C318.685 5.66912 319.189 5.44789 319.693 5.22665C320.197 5.07916 320.845 5.00542 321.565 5.00542C321.853 5.00542 322.141 5.00542 322.501 5.07916C322.861 5.07916 323.149 5.15291 323.437 5.15291V10.6838H324.877C325.093 10.6838 325.237 10.6838 325.309 10.7576C325.381 10.8313 325.454 10.9788 325.454 11.2C325.454 11.495 325.381 11.6425 325.309 11.7163C325.237 11.79 325.021 11.79 324.805 11.79H323.509V11.79ZM318.757 8.39772C318.757 8.84019 318.829 9.20892 318.973 9.43016C319.117 9.72514 319.261 9.94638 319.477 10.1676C319.693 10.3151 319.981 10.4626 320.269 10.5363C320.557 10.6101 320.917 10.6838 321.349 10.6838H322.141V6.03785C322.069 6.03785 321.997 6.03785 321.853 6.03785C321.781 6.03785 321.637 6.03785 321.565 6.03785C321.277 6.03785 320.917 6.03786 320.629 6.1116C320.269 6.18535 319.981 6.25909 319.693 6.40658C319.405 6.55407 319.189 6.84905 318.973 7.14404C318.901 7.36527 318.757 7.80775 318.757 8.39772ZM322.717 3.75174H319.045V2.94054H319.909C319.765 2.64555 319.693 2.35057 319.693 2.20308C319.693 2.05559 319.621 1.83435 319.621 1.68686C319.621 1.24439 319.765 0.801909 320.125 0.506926C320.485 0.211943 320.989 0.0644531 321.637 0.0644531C321.709 0.0644531 321.853 0.0644531 321.997 0.0644531C322.141 0.0644531 322.285 0.0644531 322.357 0.0644531V0.80191C322.285 0.80191 322.213 0.80191 322.069 0.80191C321.925 0.80191 321.853 0.80191 321.781 0.80191C321.349 0.80191 320.989 0.875659 320.773 0.949405C320.557 1.0969 320.413 1.31813 320.413 1.76061C320.413 1.9081 320.413 2.05559 320.485 2.20308C320.485 2.35057 320.557 2.57181 320.701 2.86679H322.573V3.75174H322.717Z" fill="#315679"/>
<path d="M327.11 10.6838C326.966 10.3888 326.822 10.0201 326.75 9.57762C326.606 9.13514 326.534 8.61893 326.534 8.10271C326.534 7.66023 326.606 7.29151 326.75 6.84903C326.894 6.4803 327.11 6.11157 327.398 5.81659C327.686 5.52161 328.046 5.30037 328.406 5.15288C328.838 5.00539 329.27 4.93164 329.846 4.93164C330.422 4.93164 330.926 5.00539 331.358 5.22662C331.79 5.44786 332.078 5.6691 332.366 6.03783C332.582 6.33281 332.798 6.70154 332.87 7.14401C333.014 7.51274 333.014 7.95522 333.014 8.32394C333.014 8.76642 332.942 9.20889 332.798 9.65136C332.654 10.0938 332.438 10.4626 332.222 10.7575C331.934 11.0525 331.646 11.3475 331.286 11.5687C330.926 11.79 330.422 11.8637 329.918 11.8637H324.95C324.734 11.8637 324.59 11.79 324.518 11.7162C324.446 11.6425 324.374 11.495 324.374 11.2738C324.374 10.9788 324.446 10.8313 324.518 10.8313C324.59 10.7575 324.806 10.7575 325.022 10.7575H327.11V10.6838ZM329.774 10.6838C330.134 10.6838 330.422 10.6101 330.638 10.4626C330.854 10.3151 331.07 10.1676 331.214 9.8726C331.358 9.65137 331.502 9.35638 331.574 9.0614C331.646 8.76642 331.646 8.47143 331.646 8.17645C331.646 7.51274 331.502 6.92278 331.142 6.55405C330.854 6.11157 330.35 5.89034 329.774 5.89034C329.558 5.89034 329.27 5.96408 329.054 6.03783C328.838 6.11157 328.622 6.25906 328.478 6.40655C328.334 6.55404 328.19 6.77528 328.046 7.07027C327.902 7.36525 327.902 7.66023 327.902 8.02896C327.902 8.32394 327.902 8.54518 327.974 8.84016C328.046 9.0614 328.046 9.35638 328.118 9.57762C328.19 9.79886 328.262 10.0201 328.334 10.1676C328.406 10.3151 328.478 10.5363 328.55 10.6101H329.774V10.6838Z" fill="#315679"/>
<path d="M131.901 38.6333V26.9077H139.03V28.0876H133.413V31.9962H138.814V33.1761H133.413V37.4533H139.246V38.6333H131.901V38.6333Z" fill="#315679"/>
<path d="M152.711 38.6333V33.7661C152.711 33.3974 152.711 33.1024 152.639 32.8074C152.567 32.5124 152.495 32.2912 152.351 32.07C152.207 31.8487 151.991 31.7012 151.775 31.5537C151.559 31.4062 151.199 31.3325 150.839 31.3325C150.407 31.3325 150.119 31.4062 149.831 31.5537C149.543 31.7012 149.327 31.8487 149.183 32.1437C149.039 32.3649 148.895 32.6599 148.823 32.9549C148.751 33.2499 148.751 33.6186 148.751 33.9873V38.5596H147.383V33.8399C147.383 33.4711 147.383 33.1761 147.311 32.8812C147.239 32.5862 147.167 32.2912 147.023 32.07C146.879 31.8487 146.735 31.7012 146.447 31.5537C146.231 31.4062 145.871 31.3325 145.511 31.3325C145.151 31.3325 144.791 31.4062 144.575 31.5537C144.287 31.7012 144.071 31.9225 143.927 32.1437C143.783 32.3649 143.639 32.6599 143.567 33.0287C143.495 33.3236 143.423 33.6924 143.423 33.9873V38.5596H142.054V33.1761C142.054 32.2174 142.054 31.3325 141.982 30.3738H143.351L143.423 31.7012C143.999 30.7425 144.863 30.2263 145.943 30.2263C146.591 30.2263 147.095 30.3738 147.527 30.595C147.959 30.8163 148.247 31.2588 148.535 31.9225C149.111 30.8163 150.047 30.2263 151.343 30.2263C151.919 30.2263 152.351 30.3001 152.711 30.5213C153.071 30.6688 153.359 30.9638 153.575 31.2588C153.791 31.5537 153.935 31.9225 154.007 32.3649C154.079 32.8074 154.151 33.2499 154.151 33.7661V38.5596H152.711V38.6333Z" fill="#315679"/>
<path d="M157.392 28.3826V26.9077H158.976V28.3826H157.392ZM157.464 38.6333V30.4475H158.832V38.6333H157.464Z" fill="#315679"/>
<path d="M166.249 31.7749C166.105 31.7749 166.033 31.7749 165.889 31.7749C165.097 31.7749 164.521 31.9962 164.16 32.4386C163.872 32.8811 163.656 33.4711 163.656 34.2823V38.707H162.288V32.8811C162.288 32.0699 162.288 31.2587 162.216 30.4475H163.584L163.656 31.7749C163.944 31.2587 164.304 30.9637 164.665 30.7425C165.025 30.5213 165.529 30.4475 166.105 30.4475C166.177 30.4475 166.249 30.4475 166.321 30.4475C166.393 30.4475 166.465 30.4475 166.537 30.4475V31.7749C166.465 31.7749 166.393 31.7749 166.249 31.7749Z" fill="#315679"/>
<path d="M173.953 38.6333C173.953 38.4858 173.881 38.2646 173.881 38.0434C173.881 37.8221 173.809 37.6746 173.809 37.4534C173.449 37.9696 173.089 38.2646 172.657 38.4858C172.225 38.7071 171.721 38.7808 171.145 38.7808C170.785 38.7808 170.425 38.7071 170.065 38.6333C169.705 38.5596 169.417 38.4121 169.201 38.1909C168.912 37.9696 168.768 37.7484 168.552 37.4534C168.408 37.1584 168.336 36.7897 168.336 36.3472C168.336 35.7573 168.48 35.241 168.768 34.8723C169.056 34.5036 169.417 34.2086 169.921 34.0611C170.353 33.8399 170.857 33.7661 171.433 33.6924C171.937 33.6186 172.513 33.6186 172.945 33.6186C173.089 33.6186 173.233 33.6186 173.377 33.6186C173.521 33.6186 173.665 33.6186 173.737 33.6186V33.1024C173.737 32.4387 173.593 31.9962 173.377 31.6275C173.089 31.2588 172.657 31.1113 172.009 31.1113C171.505 31.1113 171.145 31.185 170.857 31.4063C170.569 31.6275 170.425 31.9962 170.353 32.5124H168.984C168.984 32.07 169.128 31.7012 169.272 31.4063C169.417 31.1113 169.705 30.89 169.921 30.6688C170.209 30.5213 170.497 30.3738 170.857 30.3001C171.217 30.2263 171.577 30.1526 171.937 30.1526C172.945 30.1526 173.737 30.3738 174.241 30.8163C174.745 31.2588 174.961 31.9962 174.961 33.1024V36.126C174.961 36.6422 174.961 37.1584 175.033 37.6009C175.105 38.0434 175.177 38.3384 175.177 38.5596H173.953V38.6333ZM173.665 34.5773C173.521 34.5773 173.377 34.5773 173.233 34.5773C173.089 34.5773 173.017 34.5773 172.945 34.5773C172.657 34.5773 172.297 34.5773 171.937 34.6511C171.577 34.6511 171.217 34.7986 170.857 34.8723C170.497 35.0198 170.281 35.1673 169.993 35.3885C169.777 35.6098 169.633 35.9785 169.633 36.3472C169.633 36.5685 169.705 36.7897 169.777 37.0109C169.849 37.2322 169.993 37.3797 170.137 37.5271C170.281 37.6746 170.497 37.7484 170.713 37.8221C170.929 37.8959 171.145 37.8959 171.361 37.8959C171.865 37.8959 172.297 37.8221 172.585 37.6009C172.873 37.3797 173.089 37.1584 173.233 36.8634C173.377 36.5685 173.449 36.1997 173.521 35.7573C173.665 35.3885 173.665 34.9461 173.665 34.5773Z" fill="#315679"/>
<path d="M180.866 38.7071C180.218 38.7071 179.714 38.5596 179.426 38.2646C179.138 37.9696 178.922 37.4534 178.922 36.7897V31.4063H177.337V30.4476H178.922V28.8252L180.29 28.2352V30.4476H182.09V31.4063H180.29V36.1997C180.29 36.421 180.29 36.6422 180.29 36.8634C180.29 37.0109 180.362 37.1584 180.434 37.3059C180.506 37.3797 180.65 37.5272 180.794 37.5272C180.938 37.6009 181.154 37.6009 181.37 37.6009C181.514 37.6009 181.586 37.6009 181.73 37.6009C181.874 37.6009 181.946 37.6009 182.09 37.5272V38.6333C181.73 38.7071 181.298 38.7071 180.866 38.7071Z" fill="#315679"/>
<path d="M185.546 34.7986V34.9461C185.546 35.3148 185.618 35.6835 185.69 36.0522C185.762 36.421 185.906 36.7159 186.122 37.0109C186.338 37.3059 186.554 37.5271 186.842 37.6746C187.13 37.8221 187.49 37.8959 187.923 37.8959C188.499 37.8959 188.931 37.7484 189.291 37.3797C189.651 37.0847 189.867 36.5685 189.939 35.9785H191.235C191.091 36.9372 190.659 37.6746 190.083 38.1171C189.507 38.5596 188.643 38.7808 187.779 38.7808C187.13 38.7808 186.626 38.7071 186.122 38.4858C185.69 38.2646 185.258 37.9696 184.97 37.6009C184.682 37.2322 184.466 36.7897 184.25 36.2735C184.106 35.7573 184.034 35.241 184.034 34.5773C184.034 33.9874 184.106 33.3974 184.25 32.8812C184.394 32.365 184.61 31.9225 184.97 31.48C185.33 31.0375 185.69 30.7426 186.122 30.5213C186.554 30.3001 187.13 30.1526 187.851 30.1526C188.499 30.1526 189.075 30.3001 189.507 30.5213C189.939 30.7426 190.299 31.1113 190.587 31.48C190.875 31.9225 191.019 32.365 191.163 32.8812C191.235 33.3974 191.307 33.9874 191.307 34.5773H185.546V34.7986ZM190.011 33.8399C190.011 33.4711 189.939 33.1762 189.867 32.8812C189.795 32.5862 189.651 32.2912 189.507 32.07C189.363 31.8487 189.147 31.6275 188.859 31.48C188.571 31.3325 188.283 31.2588 187.923 31.2588C187.562 31.2588 187.202 31.3325 186.986 31.48C186.77 31.6275 186.482 31.775 186.266 32.07C186.05 32.2912 185.906 32.5862 185.834 32.8812C185.69 33.1762 185.618 33.5449 185.618 33.8399H190.011Z" fill="#315679"/>
<path d="M200.019 36.2735C200.019 36.7159 199.947 37.1584 199.731 37.4534C199.515 37.7484 199.299 38.0434 199.011 38.2646C198.723 38.4858 198.363 38.6333 197.931 38.7071C197.571 38.7808 197.139 38.8546 196.779 38.8546C196.347 38.8546 195.987 38.7808 195.555 38.7071C195.195 38.6333 194.835 38.4858 194.547 38.2646C194.259 38.0434 194.043 37.7484 193.899 37.4534C193.755 37.0847 193.683 36.7159 193.683 36.1997H195.051C195.051 36.7897 195.267 37.1584 195.555 37.4534C195.843 37.7484 196.275 37.8221 196.851 37.8221C197.067 37.8221 197.283 37.8221 197.499 37.7484C197.715 37.6746 197.931 37.6009 198.075 37.5272C198.219 37.3797 198.363 37.3059 198.507 37.0847C198.651 36.9372 198.651 36.7159 198.651 36.421C198.651 36.1997 198.579 36.0522 198.507 35.9047C198.435 35.7573 198.291 35.6098 198.147 35.536C198.003 35.3885 197.787 35.3148 197.571 35.241C197.355 35.1673 197.139 35.0935 196.923 35.0198L196.275 34.8723C195.987 34.7986 195.699 34.7248 195.411 34.5773C195.123 34.4298 194.835 34.3561 194.619 34.1349C194.403 33.9874 194.187 33.7661 194.043 33.4711C193.899 33.2499 193.827 32.8812 193.827 32.5124C193.827 32.07 193.899 31.7012 194.115 31.4063C194.331 31.1113 194.547 30.89 194.835 30.6688C195.123 30.4476 195.483 30.3738 195.843 30.3001C196.203 30.2263 196.563 30.1526 196.923 30.1526C197.355 30.1526 197.715 30.2263 198.075 30.3001C198.435 30.3738 198.723 30.5213 199.011 30.7425C199.299 30.9638 199.515 31.185 199.659 31.48C199.803 31.775 199.875 32.1437 199.947 32.6599H198.579C198.579 32.1437 198.435 31.775 198.147 31.5538C197.859 31.2588 197.499 31.185 196.995 31.185C196.851 31.185 196.635 31.185 196.419 31.2588C196.203 31.3325 196.059 31.4063 195.915 31.48C195.771 31.5538 195.627 31.7012 195.555 31.8487C195.483 31.9962 195.411 32.2175 195.411 32.4387C195.411 32.8074 195.555 33.1024 195.915 33.3236C196.275 33.5449 196.635 33.6924 197.139 33.8399L197.787 33.9874C198.147 34.0611 198.435 34.2086 198.795 34.2823C199.083 34.4298 199.371 34.5773 199.587 34.7248C199.803 34.8723 199.947 35.0935 200.091 35.3885C200.019 35.6098 200.019 35.9047 200.019 36.2735Z" fill="#315679"/>
<path d="M216.004 38.6333V33.2498H210.1V38.6333H208.66V26.9077H210.1V31.9962H216.004V26.9077H217.444V38.6333H216.004Z" fill="#315679"/>
<path d="M222.053 34.7986V34.9461C222.053 35.3148 222.125 35.6835 222.197 36.0522C222.269 36.421 222.413 36.7159 222.629 37.0109C222.845 37.3059 223.061 37.5271 223.349 37.6746C223.637 37.8221 223.997 37.8959 224.429 37.8959C225.005 37.8959 225.437 37.7484 225.797 37.3797C226.157 37.0847 226.373 36.5685 226.445 35.9785H227.742C227.598 36.9372 227.166 37.6746 226.589 38.1171C226.013 38.5596 225.149 38.7808 224.285 38.7808C223.637 38.7808 223.133 38.7071 222.629 38.4858C222.197 38.2646 221.765 37.9696 221.477 37.6009C221.189 37.2322 220.973 36.7897 220.757 36.2735C220.613 35.7573 220.541 35.241 220.541 34.5773C220.541 33.9874 220.613 33.3974 220.757 32.8812C220.901 32.365 221.117 31.9225 221.477 31.48C221.765 31.1113 222.197 30.7426 222.629 30.5213C223.061 30.3001 223.637 30.1526 224.357 30.1526C225.005 30.1526 225.581 30.3001 226.013 30.5213C226.445 30.7426 226.805 31.1113 227.094 31.48C227.382 31.9225 227.526 32.365 227.67 32.8812C227.742 33.3974 227.814 33.9874 227.814 34.5773H222.053V34.7986ZM226.517 33.8399C226.517 33.4711 226.445 33.1762 226.373 32.8812C226.301 32.5862 226.157 32.2912 226.013 32.07C225.869 31.8487 225.653 31.6275 225.365 31.48C225.077 31.3325 224.789 31.2588 224.429 31.2588C224.069 31.2588 223.709 31.3325 223.493 31.48C223.205 31.6275 222.989 31.775 222.773 32.07C222.557 32.2912 222.413 32.5862 222.341 32.8812C222.197 33.1762 222.125 33.5449 222.125 33.8399H226.517Z" fill="#315679"/>
<path d="M235.806 38.6333C235.806 38.4858 235.734 38.2646 235.734 38.0434C235.734 37.8221 235.662 37.6746 235.662 37.4534C235.302 37.9696 234.942 38.2646 234.51 38.4858C234.078 38.7071 233.574 38.7808 232.998 38.7808C232.638 38.7808 232.278 38.7071 231.918 38.6333C231.558 38.5596 231.27 38.4121 231.054 38.1909C230.766 37.9696 230.622 37.7484 230.405 37.4534C230.261 37.1584 230.189 36.7897 230.189 36.3472C230.189 35.7573 230.333 35.241 230.621 34.8723C230.91 34.5036 231.27 34.2086 231.774 34.0611C232.206 33.8399 232.71 33.7661 233.286 33.6924C233.79 33.6186 234.366 33.6186 234.798 33.6186C234.942 33.6186 235.086 33.6186 235.23 33.6186C235.374 33.6186 235.518 33.6186 235.59 33.6186V33.1024C235.59 32.4387 235.446 31.9962 235.23 31.6275C234.942 31.2588 234.51 31.1113 233.862 31.1113C233.358 31.1113 232.998 31.185 232.71 31.4063C232.422 31.6275 232.278 31.9962 232.206 32.5124H230.838C230.838 32.07 230.982 31.7012 231.126 31.4063C231.27 31.1113 231.558 30.89 231.774 30.6688C232.062 30.5213 232.35 30.3738 232.71 30.3001C233.07 30.2263 233.43 30.1526 233.79 30.1526C234.798 30.1526 235.59 30.3738 236.094 30.8163C236.598 31.2588 236.814 31.9962 236.814 33.1024V36.126C236.814 36.6422 236.814 37.1584 236.886 37.6009C236.958 38.0434 237.03 38.3384 237.03 38.5596H235.806V38.6333ZM235.518 34.5773C235.374 34.5773 235.23 34.5773 235.158 34.5773C235.086 34.5773 234.942 34.5773 234.87 34.5773C234.582 34.5773 234.222 34.5773 233.862 34.6511C233.502 34.6511 233.142 34.7986 232.782 34.8723C232.422 35.0198 232.206 35.1673 231.918 35.3885C231.702 35.6098 231.558 35.9785 231.558 36.3472C231.558 36.5685 231.63 36.7897 231.702 37.0109C231.774 37.2322 231.918 37.3797 232.062 37.5271C232.206 37.6746 232.422 37.7484 232.638 37.8221C232.854 37.8959 233.07 37.8959 233.286 37.8959C233.79 37.8959 234.222 37.8221 234.51 37.6009C234.798 37.3797 235.014 37.1584 235.158 36.8634C235.302 36.5685 235.374 36.1997 235.446 35.7573C235.446 35.3885 235.518 34.9461 235.518 34.5773Z" fill="#315679"/>
<path d="M240.271 38.6333V26.9077H241.639V38.6333H240.271Z" fill="#315679"/>
<path d="M247.543 38.7071C246.895 38.7071 246.391 38.5596 246.103 38.2646C245.743 37.9696 245.599 37.4534 245.599 36.7897V31.4063H244.015V30.4476H245.599V28.8252L246.967 28.2352V30.4476H248.767V31.4063H246.967V36.1997C246.967 36.421 246.967 36.6422 246.967 36.8634C246.967 37.0109 247.039 37.1584 247.111 37.3059C247.183 37.3797 247.327 37.5272 247.471 37.5272C247.615 37.5272 247.831 37.6009 248.047 37.6009C248.191 37.6009 248.263 37.6009 248.407 37.6009C248.551 37.6009 248.623 37.6009 248.767 37.5272V38.6333C248.407 38.7071 247.975 38.7071 247.543 38.7071Z" fill="#315679"/>
<path d="M256.832 38.6333V34.061C256.832 33.6923 256.832 33.3973 256.76 33.0286C256.688 32.6599 256.616 32.4386 256.544 32.1437C256.4 31.9224 256.256 31.7012 255.968 31.5537C255.752 31.4062 255.391 31.3325 254.959 31.3325C254.527 31.3325 254.239 31.4062 253.951 31.5537C253.663 31.7012 253.447 31.9224 253.303 32.2174C253.159 32.5124 253.015 32.8074 252.943 33.1761C252.871 33.5448 252.799 33.9136 252.799 34.2823V38.6333H251.431V26.9077H252.799V31.7012C253.087 31.2587 253.447 30.89 253.879 30.6687C254.311 30.4475 254.815 30.3 255.391 30.3C255.896 30.3 256.4 30.3738 256.76 30.5213C257.12 30.6687 257.408 30.89 257.624 31.185C257.84 31.4799 257.984 31.7749 258.128 32.2174C258.2 32.5861 258.272 33.0286 258.272 33.5448V38.6333H256.832Z" fill="#315679"/>
<path d="M274.977 35.3885C274.977 35.9785 274.833 36.5684 274.617 36.9372C274.329 37.3796 274.041 37.7484 273.609 38.0434C273.177 38.3383 272.745 38.4858 272.241 38.6333C271.737 38.7808 271.233 38.8546 270.657 38.8546C270.153 38.8546 269.649 38.7808 269.145 38.7071C268.641 38.6333 268.281 38.4121 267.921 38.1171C267.561 37.8221 267.273 37.5271 267.057 37.0847C266.841 36.6422 266.697 36.126 266.625 35.536H268.137C268.137 35.9047 268.209 36.1997 268.353 36.4947C268.497 36.7897 268.713 37.0109 268.929 37.1584C269.145 37.3059 269.433 37.4534 269.721 37.5271C270.009 37.6009 270.369 37.6746 270.657 37.6746C270.945 37.6746 271.305 37.6009 271.593 37.5271C271.881 37.4534 272.241 37.3059 272.457 37.1584C272.745 37.0109 272.961 36.7897 273.105 36.4947C273.249 36.1997 273.321 35.9047 273.321 35.536C273.321 35.241 273.249 34.946 273.105 34.7248C272.961 34.5036 272.817 34.2823 272.601 34.1348C272.385 33.9873 272.169 33.8399 271.881 33.6924C271.593 33.5449 271.305 33.4711 271.017 33.3974L270.009 33.1024C269.577 32.9549 269.217 32.8074 268.785 32.6599C268.425 32.5124 268.065 32.2912 267.705 32.07C267.417 31.8487 267.129 31.5537 266.985 31.185C266.769 30.8163 266.697 30.4476 266.697 29.9313C266.697 29.3414 266.841 28.8251 267.057 28.4564C267.273 28.0877 267.561 27.719 267.993 27.424C268.353 27.129 268.785 26.9815 269.289 26.834C269.793 26.6865 270.225 26.6865 270.729 26.6865C271.233 26.6865 271.665 26.7603 272.097 26.834C272.529 26.9078 272.961 27.129 273.321 27.3502C273.681 27.5715 273.969 27.8665 274.185 28.2352C274.401 28.6039 274.545 29.1201 274.545 29.6363H273.033C273.033 29.2676 272.889 29.0464 272.817 28.7514C272.745 28.4564 272.529 28.3089 272.313 28.1614C272.097 28.0139 271.881 27.9402 271.593 27.8665C271.305 27.7927 271.017 27.7927 270.729 27.7927C270.441 27.7927 270.153 27.7927 269.865 27.8665C269.577 27.9402 269.289 28.0139 269.073 28.2352C268.857 28.3827 268.641 28.6039 268.497 28.8251C268.353 29.0464 268.281 29.3414 268.281 29.7101C268.281 30.0051 268.353 30.2263 268.497 30.3738C268.641 30.595 268.785 30.7425 268.929 30.89C269.145 31.0375 269.361 31.185 269.577 31.2588C269.793 31.3325 270.009 31.48 270.225 31.5537L271.521 31.9962C271.953 32.1437 272.313 32.2912 272.745 32.4387C273.105 32.5862 273.465 32.8074 273.825 33.0287C274.113 33.2499 274.401 33.5449 274.545 33.9136C274.833 34.4298 274.977 34.8723 274.977 35.3885Z" fill="#315679"/>
<path d="M278.721 34.7986V34.9461C278.721 35.3148 278.793 35.6835 278.865 36.0522C278.937 36.421 279.081 36.7159 279.297 37.0109C279.513 37.3059 279.729 37.5271 280.017 37.6746C280.305 37.8221 280.665 37.8959 281.097 37.8959C281.673 37.8959 282.105 37.7484 282.465 37.3797C282.825 37.0847 283.041 36.5685 283.113 35.9785H284.41C284.266 36.9372 283.834 37.6746 283.257 38.1171C282.681 38.5596 281.817 38.7808 280.953 38.7808C280.305 38.7808 279.801 38.7071 279.297 38.4858C278.865 38.2646 278.433 37.9696 278.145 37.6009C277.857 37.2322 277.641 36.7897 277.425 36.2735C277.281 35.7573 277.209 35.241 277.209 34.5773C277.209 33.9874 277.281 33.3974 277.425 32.8812C277.569 32.365 277.785 31.9225 278.145 31.48C278.433 31.1113 278.865 30.7426 279.297 30.5213C279.729 30.3001 280.305 30.1526 281.025 30.1526C281.673 30.1526 282.249 30.3001 282.681 30.5213C283.113 30.7426 283.474 31.1113 283.762 31.48C284.05 31.9225 284.194 32.365 284.338 32.8812C284.41 33.3974 284.482 33.9874 284.482 34.5773H278.721V34.7986ZM283.185 33.8399C283.185 33.4711 283.113 33.1762 283.041 32.8812C282.969 32.5862 282.825 32.2912 282.681 32.07C282.537 31.8487 282.321 31.6275 282.033 31.48C281.745 31.3325 281.457 31.2588 281.097 31.2588C280.737 31.2588 280.377 31.3325 280.161 31.48C279.873 31.6275 279.657 31.775 279.441 32.07C279.225 32.2912 279.081 32.5862 279.009 32.8812C278.865 33.1762 278.793 33.5449 278.793 33.8399H283.185Z" fill="#315679"/>
<path d="M291.395 31.7749C291.251 31.7749 291.179 31.7749 291.035 31.7749C290.243 31.7749 289.667 31.9962 289.306 32.4386C289.018 32.8811 288.802 33.4711 288.802 34.2823V38.707H287.434V32.8811C287.434 32.0699 287.434 31.2587 287.362 30.4475H288.73L288.802 31.7749C289.09 31.2587 289.45 30.9637 289.811 30.7425C290.171 30.5213 290.675 30.4475 291.251 30.4475C291.323 30.4475 291.395 30.4475 291.467 30.4475C291.539 30.4475 291.611 30.4475 291.683 30.4475V31.7749C291.611 31.7749 291.467 31.7749 291.395 31.7749Z" fill="#315679"/>
<path d="M297.659 38.6333H296.219L292.979 30.4475H294.563L297.083 37.2321L299.603 30.4475H301.043L297.659 38.6333Z" fill="#315679"/>
<path d="M303.204 28.3826V26.9077H304.788V28.3826H303.204ZM303.276 38.6333V30.4475H304.644V38.6333H303.276Z" fill="#315679"/>
<path d="M314.436 37.2322C314.22 37.6009 314.004 37.8959 313.716 38.1171C313.428 38.3383 313.068 38.5596 312.636 38.6333C312.204 38.7808 311.844 38.7808 311.34 38.7808C310.692 38.7808 310.116 38.7071 309.684 38.4858C309.18 38.2646 308.82 37.9696 308.46 37.6009C308.1 37.2322 307.884 36.7897 307.74 36.2735C307.596 35.7573 307.452 35.1673 307.452 34.5773C307.452 33.9136 307.524 33.3974 307.74 32.8074C307.956 32.2175 308.172 31.775 308.46 31.4063C308.82 31.0375 309.18 30.6688 309.684 30.4476C310.188 30.2263 310.764 30.0789 311.412 30.0789C312.348 30.0789 313.068 30.3001 313.644 30.8163C314.22 31.2588 314.58 31.9962 314.652 32.9549H313.284C313.212 32.365 313.068 31.9225 312.708 31.5538C312.348 31.2588 311.916 31.0375 311.34 31.0375C310.836 31.0375 310.476 31.1113 310.116 31.3325C309.828 31.5538 309.54 31.775 309.324 32.07C309.108 32.365 308.964 32.7337 308.892 33.1762C308.82 33.5449 308.748 33.9874 308.748 34.4298C308.748 34.7986 308.82 35.241 308.892 35.6098C308.964 35.9785 309.108 36.3472 309.324 36.6422C309.54 36.9372 309.756 37.2322 310.044 37.3797C310.332 37.5271 310.692 37.6746 311.196 37.6746C311.772 37.6746 312.276 37.5272 312.636 37.1584C312.996 36.7897 313.212 36.3472 313.212 35.6835H314.508H314.58C314.724 36.421 314.652 36.8634 314.436 37.2322Z" fill="#315679"/>
<path d="M318.252 34.7986V34.9461C318.252 35.3148 318.324 35.6835 318.396 36.0522C318.468 36.421 318.612 36.7159 318.828 37.0109C319.044 37.3059 319.26 37.5271 319.548 37.6746C319.836 37.8221 320.197 37.8959 320.629 37.8959C321.205 37.8959 321.637 37.7484 321.997 37.3797C322.357 37.0847 322.573 36.5685 322.645 35.9785H323.941C323.797 36.9372 323.365 37.6746 322.789 38.1171C322.213 38.5596 321.349 38.7808 320.485 38.7808C319.836 38.7808 319.332 38.7071 318.828 38.4858C318.396 38.2646 317.964 37.9696 317.676 37.6009C317.388 37.2322 317.172 36.7897 316.956 36.2735C316.812 35.7573 316.74 35.241 316.74 34.5773C316.74 33.9874 316.812 33.3974 316.956 32.8812C317.1 32.365 317.316 31.9225 317.676 31.48C317.964 31.1113 318.396 30.7426 318.828 30.5213C319.26 30.3001 319.836 30.1526 320.557 30.1526C321.205 30.1526 321.781 30.3001 322.213 30.5213C322.645 30.7426 323.005 31.1113 323.293 31.48C323.581 31.9225 323.725 32.365 323.869 32.8812C323.941 33.3974 324.013 33.9874 324.013 34.5773H318.252V34.7986ZM322.717 33.8399C322.717 33.4711 322.645 33.1762 322.573 32.8812C322.501 32.5862 322.357 32.2912 322.213 32.07C322.069 31.8487 321.853 31.6275 321.565 31.48C321.277 31.3325 320.989 31.2588 320.629 31.2588C320.269 31.2588 319.908 31.3325 319.692 31.48C319.404 31.6275 319.188 31.775 318.972 32.07C318.756 32.2912 318.612 32.5862 318.54 32.8812C318.396 33.1762 318.324 33.5449 318.324 33.8399H322.717Z" fill="#315679"/>
<path d="M332.726 36.2735C332.726 36.7159 332.654 37.1584 332.438 37.4534C332.222 37.7484 332.006 38.0434 331.718 38.2646C331.43 38.4858 331.07 38.6333 330.638 38.7071C330.278 38.7808 329.846 38.8546 329.486 38.8546C329.054 38.8546 328.694 38.7808 328.262 38.7071C327.902 38.6333 327.542 38.4858 327.254 38.2646C326.966 38.0434 326.75 37.7484 326.606 37.4534C326.462 37.1584 326.39 36.7159 326.39 36.1997H327.758C327.758 36.7897 327.974 37.1584 328.262 37.4534C328.55 37.7484 328.982 37.8221 329.558 37.8221C329.774 37.8221 329.99 37.8221 330.206 37.7484C330.422 37.6746 330.638 37.6009 330.782 37.5272C330.926 37.3797 331.07 37.3059 331.214 37.0847C331.358 36.9372 331.358 36.7159 331.358 36.421C331.358 36.1997 331.286 36.0522 331.214 35.9047C331.142 35.7573 330.998 35.6098 330.854 35.536C330.71 35.3885 330.494 35.3148 330.278 35.241C330.062 35.1673 329.846 35.0935 329.63 35.0198L328.982 34.8723C328.694 34.7986 328.406 34.7248 328.118 34.5773C327.83 34.5036 327.542 34.3561 327.326 34.1349C327.11 33.9874 326.894 33.7661 326.75 33.4711C326.606 33.2499 326.534 32.8812 326.534 32.5124C326.534 32.07 326.606 31.7012 326.822 31.4063C327.038 31.1113 327.254 30.89 327.542 30.6688C327.83 30.4476 328.19 30.3738 328.55 30.3001C328.91 30.2263 329.27 30.1526 329.63 30.1526C330.062 30.1526 330.422 30.2263 330.782 30.3001C331.142 30.3738 331.43 30.5213 331.718 30.7425C332.006 30.9638 332.222 31.185 332.366 31.48C332.51 31.775 332.582 32.1437 332.654 32.6599H331.286C331.286 32.1437 331.142 31.775 330.854 31.5538C330.566 31.2588 330.206 31.185 329.702 31.185C329.558 31.185 329.342 31.185 329.126 31.2588C328.91 31.3325 328.766 31.4063 328.622 31.48C328.478 31.5538 328.334 31.7012 328.19 31.8487C328.118 31.9962 328.046 32.2175 328.046 32.4387C328.046 32.8074 328.19 33.1024 328.55 33.3236C328.91 33.5449 329.27 33.6924 329.774 33.8399L330.422 33.9874C330.782 34.0611 331.07 34.2086 331.43 34.2823C331.718 34.4298 332.006 34.5773 332.222 34.7248C332.438 34.8723 332.582 35.0935 332.726 35.3885C332.87 35.6835 332.726 35.9047 332.726 36.2735Z" fill="#315679"/>
</svg>
